<svg xmlns="http://www.w3.org/2000/svg" width="149" height="30" fill="none"><g clip-path="url(#a)"><path fill="url(#b)" d="M30 15c0-8.284-6.716-15-15-15S0 6.716 0 15s6.716 15 15 15 15-6.716 15-15"/><path fill="#131515" fill-rule="evenodd" d="M29.999 16.155c-.364.066-6.97.016-7.328-.076a2.554 2.554 0 0 1-1.917-2.417v-2.638a2.464 2.464 0 1 0-4.929 0v8.55c-.187 5.43-8.02 5.437-8.207 0v-2.63a.82.82 0 0 0-.826-.825H.004v-1.64h6.788a2.47 2.47 0 0 1 2.464 2.466v2.63a2.466 2.466 0 0 0 4.93 0v-8.551c.187-5.43 8.018-5.43 8.207 0v2.638a.82.82 0 0 0 .825.818H30v1.675Z" clip-rule="evenodd"/><path fill="#131515" d="M36.667 5.863h4.54v7.61h7.021v-7.61h4.567v19.09h-4.567v-7.77h-7.02v7.77h-4.54V5.864Zm22.099 14.713q0 .773.534 1.174.562.375 1.575.375 1.575 0 2.51-.909.962-.933.962-2.537v-.533l-3.552.72q-1.067.215-1.548.615-.482.401-.481 1.095m-4.512.694q0-1.896 1.281-2.911 1.309-1.04 3.846-1.522l4.966-.935v-.107q0-1.281-.694-1.922-.695-.64-1.95-.64-1.335 0-1.975.693-.642.669-.775 1.87h-4.486q.136-1.494.694-2.564a5.6 5.6 0 0 1 1.522-1.815A6.6 6.6 0 0 1 58.9 10.35c.915-.24 1.858-.356 2.804-.347q3.336 0 5.125 1.575 1.816 1.549 1.816 4.566v8.812h-4.112l-.08-2.057q-.694 1.042-2.082 1.735-1.363.696-3.204.696a7 7 0 0 1-1.842-.242 4.7 4.7 0 0 1-1.575-.694 3.75 3.75 0 0 1-1.096-1.253q-.4-.776-.4-1.87Zm20.53-3.632q0 1.948.853 3.043.855 1.095 2.377 1.096 1.522 0 2.35-1.068.855-1.096.855-3.071 0-1.95-.829-3.017-.827-1.07-2.35-1.069-1.547 0-2.403 1.096c-.568.71-.853 1.71-.853 2.99m-4.38-12.283h4.3v7.316a4.95 4.95 0 0 1 1.896-1.976q1.227-.694 2.83-.694 1.413 0 2.563.561c.774.349 1.452.88 1.976 1.548q.827.989 1.281 2.404.454 1.413.455 3.15-.001 1.736-.455 3.15-.454 1.417-1.281 2.43a5.6 5.6 0 0 1-1.976 1.549q-1.148.535-2.564.535-1.602 0-2.883-.695-1.282-.694-1.95-2.056l-.08 2.377h-4.112zm16.87 5.02h4.406v14.579h-4.406zm-.053-4.966h4.513v3.657H87.22V5.41Zm7.967 8.517h-2.083v-3.551h2.083V6.85h4.46v3.525h4.564v3.551h-4.564v5.34q0 1.389.667 1.869.667.454 1.896.454.452 0 .961-.026.525-.057 1.042-.161v3.552q-.988.187-1.843.267a13 13 0 0 1-1.629.107q-2.805 0-4.192-1.362-1.362-1.39-1.361-4.486zm10.365-8.599h4.432v19.626h-4.432zm6.314 5.048h4.405v14.579h-4.405zm-.054-4.966h4.513v3.657h-4.513V5.41Zm6.333 4.967h4.138l.054 2.616q.56-1.575 1.736-2.27 1.201-.72 2.803-.72 2.323 0 3.685 1.468 1.388 1.443 1.389 4.085v9.4h-4.46v-8.011q0-1.682-.534-2.456-.508-.775-1.708-.775-1.256 0-1.977.828-.694.801-.694 2.403v8.01h-4.432V10.377Zm26.168 6.113q-.214-1.44-1.015-2.268-.774-.829-2.109-.828-1.362 0-2.19.828-.8.825-1.015 2.27zm-10.921 1.15q0-1.709.56-3.123a6.8 6.8 0 0 1 1.576-2.403 6.8 6.8 0 0 1 2.429-1.55q1.442-.56 3.205-.56 1.762 0 3.151.56a6.5 6.5 0 0 1 2.403 1.55 6.4 6.4 0 0 1 1.495 2.403q.535 1.387.534 3.096v1.095h-10.788q.216 1.522 1.042 2.377.828.855 2.19.855 1.015 0 1.709-.482.694-.48 1.068-1.36h4.672q-.667 2.428-2.616 3.844-1.95 1.388-4.833 1.389-1.763 0-3.205-.562-1.441-.561-2.456-1.548a7.1 7.1 0 0 1-1.576-2.43q-.56-1.441-.56-3.15z"/></g><defs><linearGradient id="b" x1="0" x2="28.234" y1="2.817" y2="27.163" gradientUnits="userSpaceOnUse"><stop stop-color="#F5DC4E"/><stop offset="1" stop-color="#FF7676"/></linearGradient><clipPath id="a"><path fill="#fff" d="M0 0h148.929v30H0z"/></clipPath></defs></svg>