<svg xmlns="http://www.w3.org/2000/svg" width="14" height="15" fill="none"><path fill="#529DFF" d="M9.786 0 4.188.015A4.204 4.204 0 0 0 0 4.225l.01 3.266a4.204 4.204 0 0 0 3.977 4.182l.005 1.947a.397.397 0 0 0 .677.278l.436-.44a6.04 6.04 0 0 1 4.298-1.793l.416-.001a4.204 4.204 0 0 0 4.187-4.21l-.009-3.266A4.204 4.204 0 0 0 9.786 0M3.973 6.78a.934.934 0 0 1-.005-1.865.934.934 0 0 1 .005 1.866Zm3.032-.008A.934.934 0 0 1 7 4.906a.934.934 0 0 1 .005 1.866m3.033-.008a.934.934 0 0 1-.005-1.866.934.934 0 0 1 .005 1.866"/></svg>